<?xml version="1.0" standalone="no"?>
<!DOCTYPE svg PUBLIC "-//W3C//DTD SVG 20010904//EN"
 "http://www.w3.org/TR/2001/REC-SVG-20010904/DTD/svg10.dtd">
<svg version="1.0" xmlns="http://www.w3.org/2000/svg"
 width="512.000000pt" height="512.000000pt" viewBox="0 0 512.000000 512.000000"
 preserveAspectRatio="xMidYMid meet">

<g transform="translate(0.000000,512.000000) scale(0.100000,-0.100000)"
fill="#000000" stroke="none">
<path d="M2475 4894 c-189 -25 -349 -85 -495 -184 -384 -261 -524 -760 -346
-1232 69 -184 145 -296 328 -485 154 -159 168 -182 130 -216 -34 -31 -64 -20
-182 68 -134 99 -262 166 -375 196 -103 27 -311 36 -426 19 -537 -78 -882
-531 -837 -1096 24 -294 176 -575 405 -749 205 -154 432 -220 679 -195 249 25
413 100 583 264 195 188 286 356 342 628 12 59 28 113 35 119 23 19 61 2 73
-32 32 -92 -11 -644 -69 -893 -60 -259 -184 -517 -388 -810 -55 -78 -55 -78
-26 -72 122 24 271 31 654 30 317 0 446 -4 545 -16 72 -9 131 -15 132 -14 1 1
-37 55 -84 121 -215 301 -306 512 -367 845 -39 213 -56 401 -56 612 0 197 7
238 39 238 33 0 57 -45 76 -137 28 -142 60 -231 128 -349 126 -221 262 -357
452 -452 225 -112 472 -128 719 -47 165 54 276 118 395 230 190 180 299 421
319 705 14 208 -9 347 -83 507 -52 110 -87 163 -167 248 -197 211 -480 326
-802 325 -263 -1 -414 -56 -609 -224 -49 -42 -99 -79 -112 -82 -37 -9 -65 12
-65 49 0 27 14 45 100 127 169 162 304 348 369 512 97 240 105 510 25 747
-115 338 -415 606 -754 674 -80 16 -235 27 -285 21z"/>
</g>
</svg>
