<?xml version="1.0" standalone="no"?>
<!DOCTYPE svg PUBLIC "-//W3C//DTD SVG 20010904//EN"
 "http://www.w3.org/TR/2001/REC-SVG-20010904/DTD/svg10.dtd">
<svg version="1.0" xmlns="http://www.w3.org/2000/svg"
 width="512.000000pt" height="512.000000pt" viewBox="0 0 512.000000 512.000000"
 preserveAspectRatio="xMidYMid meet">

<g transform="translate(0.000000,512.000000) scale(0.100000,-0.100000)"
fill="#ff0000" stroke="none">
<path d="M1350 4875 c-115 -20 -193 -42 -276 -80 -222 -101 -389 -267 -508
-503 -265 -526 -227 -1099 120 -1782 199 -393 562 -906 948 -1339 219 -245
893 -946 911 -946 11 0 116 108 561 580 454 481 617 669 837 960 191 253 398
578 511 803 177 351 256 698 243 1057 -21 559 -234 943 -632 1143 -284 143
-616 160 -929 48 -119 -42 -173 -77 -257 -161 -124 -125 -201 -270 -246 -465
-37 -156 -56 -212 -76 -224 -30 -18 -51 21 -77 140 -25 115 -69 252 -102 319
-66 130 -206 285 -321 353 -125 75 -295 113 -501 111 -72 -1 -165 -7 -206 -14z"/>
</g>
</svg>
