<?xml version="1.0" standalone="no"?>
<!DOCTYPE svg PUBLIC "-//W3C//DTD SVG 20010904//EN"
 "http://www.w3.org/TR/2001/REC-SVG-20010904/DTD/svg10.dtd">
<svg version="1.0" xmlns="http://www.w3.org/2000/svg"
 width="512.000000pt" height="512.000000pt" viewBox="0 0 512.000000 512.000000"
 preserveAspectRatio="xMidYMid meet">

<g transform="translate(0.000000,512.000000) scale(0.100000,-0.100000)"
fill="#000000" stroke="none">
<path d="M2567 4878 c-13 -18 -52 -73 -87 -123 -96 -136 -197 -264 -636 -805
-586 -724 -657 -817 -801 -1045 -275 -436 -376 -734 -359 -1065 27 -575 387
-942 921 -941 228 0 393 58 509 177 88 90 189 267 246 431 38 109 51 124 81
97 20 -17 21 -26 16 -99 -7 -92 -45 -298 -88 -467 -76 -303 -189 -528 -374
-741 -59 -68 -71 -86 -53 -83 253 54 600 78 830 57 70 -7 201 -22 290 -35 90
-13 164 -23 166 -21 2 2 -24 39 -59 82 -188 236 -316 493 -388 778 -82 327
-98 519 -46 538 26 11 44 -20 74 -128 92 -328 273 -510 564 -571 93 -20 291
-20 382 0 288 62 485 216 615 481 165 337 144 734 -64 1170 -139 290 -298 520
-831 1200 -325 415 -556 713 -738 953 l-146 192 -24 -32z"/>
</g>
</svg>
